<svg xmlns="http://www.w3.org/2000/svg" viewBox="0 0 512 512"><linearGradient id="a"><stop offset=".1" stop-color="#fff152"/><stop offset="1" stop-color="#fffad6"/></linearGradient><linearGradient id="b"><stop stop-color="#fff052"/><stop offset=".3" stop-color="#fff899"/><stop offset="1" stop-color="#fffc9e"/></linearGradient><linearGradient id="c"><stop stop-color="#fff152"/><stop offset="1" stop-color="#fffcd6"/></linearGradient><path fill="#ffdc52" d="M95 122q-48 35-95 25 26 56 115 60Z"/><g fill="#fff052"><path d="M115 207c-81 46-95 201 67 263 135 51 239-30 266-63q8-9 15-19 26-34 38-74 26-85-10-170c-19 110-141 135-207 71Z"/><path fill="url(#a)" d="M463 388q26-34 38-74c-29 81-200 93-198-23 100 97 208-34 188-147-19 109-141 135-207 71-150 101 50 304 179 173Z"/><path fill="url(#b)" d="M115 207c-81 46-95 201 67 263Q58 397 96 284q14 125 125 161c-36-17-65-94-36-145 12 161 188 169 263 107q8-9 15-19c-126 104-304-33-179-173q-116 0-148 112-16-60 1-100Z"/><circle cx="203" cy="140" r="111"/></g><path fill="url(#c)" d="M129 57c-54 79 79 206 180 116C344 59 206-15 129 57Z"/><path fill="#fff" d="M111 135s33 11 74-22q-32 57-74 22Z"/></svg>